# xmcd
#
# Track frame offsets:
#	150
#	21308
#	40125
#	58364
#	77254
#	90366
#	110010
#	126600
#	145978
#
# Disc length: 2132 seconds
#
# Revision: 1
# Processed by: cddbd v1.5.2PL0 Copyright (c) Steve Scherf et al.
# Submitted via: EasyCDDAExtractor 5.0.7
#
DISCID=7a085209
DTITLE=Dawn Of demise - A force unstoppable
DYEAR=2010
DGENRE=Death Metal
TTITLE0=Multiple flatlines
TTITLE1=Awaken the aggressor
TTITLE2=Reap the suffering
TTITLE3=Leech the blood
TTITLE4=Bludgeon
TTITLE5=Amongst the tortured
TTITLE6=Heinous acts of war
TTITLE7=Malevolence converged
TTITLE8=Juggernaut
EXTD=
EXTT0=
EXTT1=
EXTT2=
EXTT3=
EXTT4=
EXTT5=
EXTT6=
EXTT7=
EXTT8=
PLAYORDER=
